<svg width="112" height="75" viewBox="0 0 112 75" fill="none" xmlns="http://www.w3.org/2000/svg">
<path d="M30.426 13.4559C30.426 8.07035 34.7919 3.70453 40.1774 3.70453H49.1689C54.5544 3.70453 58.9202 8.07036 58.9202 13.4559V21.1176H30.426V13.4559Z" fill="#4200FF"/>
<path d="M30.7353 21.1176C24.094 21.1176 20.928 24.0198 20.928 27.7927V54.795C20.928 60.0843 24.5729 61.7481 29.0692 61.7481H53.2975C53.306 61.7482 53.3146 61.7483 53.3232 61.7483H65.7046C67.2033 61.7483 68.4183 60.319 68.4183 58.5559V47.5275C68.4183 45.7644 67.2033 44.3351 65.7046 44.3351H62.0863V27.7926C62.0863 22.5033 60.5033 21.1176 56.007 21.1176H30.7353Z" fill="#4200FF"/>
<path fill-rule="evenodd" clip-rule="evenodd" d="M30.426 21.1176L55.7542 21.1176C58.9202 21.1176 62.0863 24.0198 62.0863 26.922V38.5308L46.2562 38.5308V41.433L62.0863 41.4329V44.3351L46.2562 44.3351V47.2373H62.0863V51.5906C62.0863 52.392 62.795 53.0417 63.6693 53.0417C64.5435 53.0417 65.2523 52.392 65.2523 51.5906V47.2373H68.4185V58.8461H55.754V61.7483L93.7463 61.7482V58.8461H90.5805V44.3351C90.5805 38.5308 87.4144 35.6286 81.0824 35.6286H71.5841C69.8358 35.6288 68.4185 36.928 68.4185 38.5308V44.3351H65.2523V26.922C65.2523 21.1176 62.0863 18.2155 55.7542 18.2155H30.426C24.094 18.2155 20.928 21.1176 20.928 26.922L20.928 58.8461C19.1794 58.8461 17.762 60.1454 17.762 61.7482H46.2562V58.8461H24.094V47.2373H43.0901V44.3351L24.094 44.3351V41.433L43.0901 41.4329V38.5308L24.094 38.5308L24.094 26.922C24.094 24.0198 27.26 21.1176 30.426 21.1176ZM87.4144 50.1395V44.3351C87.4144 41.4329 84.2484 38.5308 81.0824 38.5308H71.5845V58.8461H87.4144V53.0417H77.9164C77.9164 51.4389 79.3339 50.1395 81.0824 50.1395H87.4144Z" fill="white"/>
<path d="M52.5882 58.8461H49.4222V61.7482H52.5882V58.8461Z" fill="white"/>
<path d="M43.0901 0.802338H46.2561V6.60671H43.0901V0.802338Z" fill="white"/>
<path d="M39.9241 9.5089C38.1756 9.5089 36.7581 10.8082 36.7581 12.4111V21.1176H39.9241V12.4111H49.4222V21.1176H52.5882V12.4111C52.5882 10.8082 51.1707 9.5089 49.4222 9.5089H39.9241Z" fill="white"/>
<path d="M30.426 3.70452H27.26V6.60671H30.426V9.5089H33.5921V6.60671H30.426V3.70452Z" fill="white"/>
<path d="M58.9202 6.60671H55.7542V9.5089H58.9202V6.60671Z" fill="white"/>
<path d="M58.9202 6.60671H62.0862V3.70452H58.9202V6.60671Z" fill="white"/>
<path d="M33.5921 15.3133V12.4111H27.26V15.3133H33.5921Z" fill="white"/>
<path d="M62.0862 12.4111V15.3133H55.7542V12.4111H62.0862Z" fill="white"/>
<path d="M32.009 70.4548C36.3804 70.4548 39.9241 67.2065 39.9241 63.1994C39.9241 59.1923 36.3804 55.9439 32.009 55.9439C27.6377 55.9439 24.094 59.1923 24.094 63.1994C24.094 67.2065 27.6377 70.4548 32.009 70.4548Z" fill="white"/>
<path d="M73.1673 70.4548C77.5387 70.4548 81.0824 67.2065 81.0824 63.1994C81.0824 59.1923 77.5387 55.9439 73.1673 55.9439C68.796 55.9439 65.2523 59.1923 65.2523 63.1994C65.2523 67.2065 68.796 70.4548 73.1673 70.4548Z" fill="white"/>
<path d="M32.009 67.5526C34.6319 67.5526 36.7581 65.6036 36.7581 63.1993C36.7581 60.7951 34.6319 58.8461 32.009 58.8461C29.3862 58.8461 27.26 60.7951 27.26 63.1993C27.26 65.6036 29.3862 67.5526 32.009 67.5526Z" fill="#4200FF"/>
<path d="M73.1673 67.5526C75.7901 67.5526 77.9164 65.6036 77.9164 63.1993C77.9164 60.7951 75.7901 58.8461 73.1673 58.8461C70.5445 58.8461 68.4183 60.7951 68.4183 63.1993C68.4183 65.6036 70.5445 67.5526 73.1673 67.5526Z" fill="#4200FF"/>
<path d="M39.9245 38.5308V35.6286H49.4226V38.5308L52.5886 38.5308V47.2373H49.4226V50.1395H39.9245V47.2373L39.9245 44.3351H43.0905V47.2373H46.2566V44.3351H49.4226V41.4329H46.2566V38.5308H43.0905V41.4329H39.9245V47.2373L36.7583 47.2367V38.5302L39.9245 38.5308Z" fill="white"/>
</svg>
