<svg width="80" height="78" viewBox="0 0 80 78" fill="none" xmlns="http://www.w3.org/2000/svg">
<path d="M70.2364 56.5086C74.0114 54.2348 76.5294 50.1462 76.5294 45.4804C76.5294 38.3394 70.6313 32.5504 63.3555 32.5504C56.0798 32.5504 50.1817 38.3394 50.1817 45.4804C50.1817 50.1462 52.6996 54.2348 56.4746 56.5086C54.7195 57.2216 53.1036 58.2084 51.7114 59.4383C48.6231 62.1662 46.8882 65.8661 46.8882 69.724V77.8052H79.8229V69.724C79.8229 65.8661 78.0879 62.1662 74.9997 59.4383C73.6074 58.2084 71.9915 57.2216 70.2364 56.5086Z" fill="white"/>
<path d="M30.4209 33.3145H33.7144V43.0472H30.4209V33.3145Z" fill="#4200FF"/>
<path d="M30.4209 46.2914H33.7144V49.5357H30.4209V46.2914Z" fill="#4200FF"/>
<path d="M33.7144 20.3376V17.0933C40.3013 17.0933 43.5948 20.3376 43.5948 26.826L40.3013 26.826C40.3013 23.5818 37.0079 20.3376 33.7144 20.3376Z" fill="#4200FF"/>
<path d="M33.7144 33.3145L33.7144 36.5587C40.3013 36.5587 43.5948 33.3145 43.5948 26.826L40.3013 26.826C40.3013 30.0703 37.0078 33.3145 33.7144 33.3145Z" fill="#4200FF"/>
<path d="M33.7144 20.3376V17.0933C27.1275 17.0933 23.834 20.3376 23.834 26.826L27.1275 26.826C27.1275 23.5818 30.4209 20.3376 33.7144 20.3376Z" fill="#4200FF"/>
<path d="M56.8125 6.69058L17.4657 6.69058V9.87529L56.8125 9.87529C60.0914 9.87529 63.3703 13.06 63.3703 16.2447V35.353H66.6491V16.2447C66.6491 9.87529 63.3703 6.69058 56.8125 6.69058Z" fill="#4200FF"/>
<path d="M17.2471 55.1778C14.0994 55.1778 10.6602 52.2956 10.6602 49.2383V15.6078H7.3667V49.2383C7.3667 55.3529 10.5144 58.4102 16.8099 58.4102L35.6964 58.4102V55.1778H17.2471Z" fill="#4200FF"/>
<path d="M38.0572 58.4102V55.1778L44.3526 55.0666V58.4102H38.0572Z" fill="#4200FF"/>
<path d="M50.1817 42.2479C50.1817 35.7829 53.4751 32.5504 60.0621 32.5504H66.649C73.2359 32.5504 76.5294 35.7829 76.5294 42.2479H79.8229V48.7128H76.5294C76.5294 55.1778 73.2359 58.4103 66.649 58.4103V55.1778C69.9425 55.1778 73.2359 51.9453 73.2359 48.7128V42.2479C73.2359 39.0154 69.9425 35.7829 66.649 35.7829H60.0621C56.7686 35.7829 53.4751 39.0154 53.4751 42.2479V48.7128H46.8882V42.2479H50.1817Z" fill="#4200FF"/>
<rect x="0.779541" y="3.45813" width="16.4673" height="9.69744" fill="white"/>
<path fill-rule="evenodd" clip-rule="evenodd" d="M4.07302 3.46945V0.225647L13.9535 0.225647V3.45785H17.2469L17.2469 13.2028H13.9535V16.4466H4.07302V13.2028H0.779541V3.47002L4.07302 3.46945ZM7.36653 13.2024V9.9581H4.07305V6.71372H7.36653V3.46992H10.6599V6.71372H13.9534V6.69033L13.9534 9.95857L10.6599 9.9581V13.2024H7.36653Z" fill="#4200FF"/>
</svg>
