<svg width="72" height="73" viewBox="0 0 72 73" fill="none" xmlns="http://www.w3.org/2000/svg">
    <rect x="2.9873" y="12.6753" width="9.00326" height="8.90322"
        transform="rotate(-90 2.9873 12.6753)" fill="white" />
    <path
        d="M67.5804 24.8322C68.1841 24.2462 68.1841 23.2961 67.5804 22.7101L61.4287 16.7381C60.8251 16.1521 59.8464 16.1521 59.2427 16.7381L25.9672 49.0415C25.3636 49.6275 25.3636 50.5776 25.9672 51.1636L32.119 57.1356C32.7226 57.7216 33.7013 57.7216 34.3049 57.1356L67.5804 24.8322Z"
        fill="white" />
    <path d="M32.6648 60.6927H14.8584V63.6938H32.6648V60.6927Z" fill="white" />
    <path
        d="M59.3491 16.0884C59.9403 15.5144 60.8988 15.5144 61.49 16.0884L68.049 22.4557C68.6401 23.0297 68.6401 23.9602 68.049 24.5341L66.9334 25.617L58.2336 17.1713L59.3491 16.0884Z"
        fill="#FFFFFF" />
    <path fill-rule="evenodd" clip-rule="evenodd"
        d="M65.7947 26.2697L57.974 18.6775L57.4425 18.164L32.7126 42.1714L29.996 39.5341L27.81 41.6562L40.4648 53.9413L42.6508 51.8192L41.2419 50.4515L47.5034 44.3729V63.6938H35.3326C34.4433 59.6923 31.5755 57.6916 26.7292 57.6916H20.7937C15.9474 57.6916 13.0796 59.6923 12.1903 63.6938H8.92276V63.6974C2.98727 63.8163 0.0195312 66.8161 0.0195312 72.697H8.92276V69.6959H4.10004C5.25819 67.9734 7.27596 66.6949 9.29372 66.6949H62.3421C64.2792 66.6949 66.2162 67.9734 67.328 69.6959H20.7937V72.697H71.2453C71.2453 66.6949 68.2776 63.6938 62.3421 63.6938H56.4066V35.7298L65.9581 26.4573L65.7798 26.2842L65.7947 26.2697ZM53.4389 38.6108L50.4711 41.4919V63.6938H53.4389V38.6108ZM34.8986 44.2935L57.4438 22.4069L61.4406 26.287L38.8954 48.1735L34.8986 44.2935ZM26.7292 60.6927C28.6663 60.6927 30.6033 61.9712 31.7151 63.6938H15.8078C16.9196 61.9712 18.8567 60.6927 20.7937 60.6927H26.7292Z"
        fill="#FFFFFF" />
    <path d="M33.8998 49.3261L27.0601 42.6862L24.8742 44.8082L31.7139 51.4481L33.8998 49.3261Z"
        fill="#FFFFFF" />
    <path d="M36.1213 51.4832L39.7145 54.9714L37.5285 57.0934L33.9354 53.6053L36.1213 51.4832Z"
        fill="#FFFFFF" />
    <path d="M11.8905 69.6959H14.8582V72.697H11.8905V69.6959Z" fill="#FFFFFF" />
    <path
        d="M21.7829 25.0438L23.9688 22.9217L21.7829 20.7997L23.9688 18.6776L26.1547 20.7996L28.3407 18.6775L30.5267 20.7996L28.3407 22.9217L30.5267 25.0438L28.3407 27.1659L26.1547 25.0438L23.9688 27.1658L21.7829 25.0438Z"
        fill="#FFFFFF" />
    <path
        d="M7.60587 35.8051L5.41992 37.9272L7.60587 40.0492L5.41992 42.1713L7.60587 44.2934L9.79182 42.1713L11.9778 44.2934L14.1637 42.1713L11.9778 40.0492L14.1637 37.9272L11.9778 35.8051L9.79182 37.9272L7.60587 35.8051Z"
        fill="#FFFFFF" />
    <path
        d="M2.98745 3.67205V0.670959H11.8907V3.67205L14.8584 3.67205V12.6753H11.8907V15.6764H2.98745V12.6753L2.98745 9.67422H5.9552V12.6753H8.92294V9.67422H11.8907V6.67313H8.92294V3.67205H5.9552V6.67313H2.98745V12.6753L0.0195312 12.6747V3.67145L2.98745 3.67205Z"
        fill="#FFFFFF" />
</svg>