<svg width="74" height="69" viewBox="0 0 74 69" fill="none" xmlns="http://www.w3.org/2000/svg">
    <path
        d="M51.8141 3.50143C46.777 3.50143 42.6937 7.30316 42.6937 11.9928V17.6537C42.6937 22.3434 46.777 26.1451 51.8141 26.1451H63.9745C69.0116 26.1451 73.0949 22.3434 73.0949 17.6537V11.9928C73.0949 7.30316 69.0116 3.50143 63.9745 3.50143H51.8141Z"
        fill="white" />
    <path
        d="M9.25243 20.4842C4.2154 20.4842 0.13208 24.2859 0.13208 28.9756V40.2974C0.13208 44.9871 4.2154 48.7888 9.25243 48.7888H24.453C29.49 48.7888 33.5734 44.9871 33.5734 40.2974V28.9756C33.5734 24.2859 29.4901 20.4842 24.453 20.4842H9.25243Z"
        fill="white" />
    <rect x="57.8943" y="3.50143" width="15.2006" height="8.49139" fill="white" />
    <path
        d="M42.6938 14.8233C42.6938 9.16234 45.7339 6.33188 51.8141 6.33188H57.8943V9.16234L51.8141 9.16234C48.774 9.16234 45.7339 11.9928 45.7339 14.8233V23.3146H42.6938V14.8233Z"
        fill="#FFFFFF" />
    <path
        d="M45.7339 26.1451H42.6938V23.3146H39.6536V28.9756H36.6135V31.806H39.6536V28.9756H45.7339V26.1451Z"
        fill="#FFFFFF" />
    <path
        d="M73.0949 17.6537C73.0949 23.3146 70.0548 26.1451 63.9746 26.1451H45.7339V23.3146H63.9746C67.0147 23.3146 70.0548 20.4842 70.0548 17.6537V14.8233H73.0949V17.6537Z"
        fill="#FFFFFF" />
    <path d="M54.8542 17.6537H51.8141V20.4842H54.8542V17.6537Z" fill="#FFFFFF" />
    <path d="M60.9345 17.6537H57.8943V20.4842H60.9345V17.6537Z" fill="#FFFFFF" />
    <path d="M13.599 29.4902H16.9658V32.578H13.599V29.4902Z" fill="#FFFFFF" />
    <path d="M13.599 38.7536H23.6993V41.8413H13.599V38.7536Z" fill="#FFFFFF" />
    <path d="M10.2322 35.6658H13.5989L13.599 38.7536L10.2322 38.7536V35.6658Z" fill="#FFFFFF" />
    <path d="M23.6992 35.6658H27.0659V38.7536L23.6993 38.7536L23.6992 35.6658Z" fill="#FFFFFF" />
    <path d="M20.3325 29.4902H23.6993V32.578H20.3325V29.4902Z" fill="#FFFFFF" />
    <path
        d="M3.1722 32.7495V39.0394H0.13208V32.7495C0.13208 26.4596 3.44863 23.3146 10.0816 23.3146H23.3475L23.3474 26.1451H10.0816C6.7651 26.1451 3.1722 29.6046 3.1722 32.7495Z"
        fill="#FFFFFF" />
    <path
        d="M10.0817 48.7888C3.44874 48.7888 0.13208 45.3293 0.13208 39.0394H3.1722C3.1722 43.1279 6.21232 45.9583 10.6344 45.9583L30.5333 45.9583V48.7888L10.0817 48.7888Z"
        fill="#FFFFFF" />
    <path
        d="M36.6135 48.7888H33.5734V32.7495C33.5734 26.1451 30.5333 23.3146 23.3475 23.3146L23.3474 26.1451C27.4931 26.1451 30.5333 28.9756 30.5333 32.7495V48.7888H33.5734V51.6193L36.6135 51.6192V48.7888Z"
        fill="#FFFFFF" />
    <path
        d="M30.5332 11.9928C27.4931 11.9928 24.453 14.8233 24.453 17.6537V23.3147H21.4128V17.6537C21.4128 11.9928 24.453 9.16235 30.5332 9.16235H45.7338V11.9928L30.5332 11.9928Z"
        fill="#FFFFFF" />
    <path
        d="M21.4128 60.1107C21.4128 65.7716 24.453 68.602 30.5332 68.602H36.6134V65.7716H30.5332C27.4931 65.7716 24.453 62.9411 24.453 60.1107V45.9584H21.4128V60.1107Z"
        fill="#FFFFFF" />
    <path
        d="M48.7739 60.1107C48.7739 62.9411 45.7338 65.7716 42.6937 65.7716V68.602C48.7739 68.602 51.814 65.7716 51.814 60.1107V26.1451H48.7739V60.1107Z"
        fill="#FFFFFF" />
    <path d="M39.6535 60.1107H33.5733V62.9411H39.6535V60.1107Z" fill="#FFFFFF" />
    <path
        d="M60.9346 3.50142V0.670959H70.0549V3.50142L73.0951 3.50142V11.9928H70.0549V14.8233H60.9346V11.9928L60.9346 9.16234H63.9747V11.9928H67.0148V9.16234H70.0549V6.33188H67.0148V3.50142H63.9747V6.33188H60.9346V11.9928L57.8943 11.9922V3.50086L60.9346 3.50142Z"
        fill="#FFFFFF" />
</svg>